<svg width="1212" height="786" viewBox="0 0 1212 786" fill="none" xmlns="http://www.w3.org/2000/svg">
<path d="M148.619 1230.79L149.374 1231.45L149.845 1230.9L149.481 1230.28L148.619 1230.79ZM-85.4709 832.132L-84.6086 831.626L-84.9736 831.004L-85.6786 831.154L-85.4709 832.132ZM-357.346 889.853L-358.208 890.36L-357.843 890.981L-357.138 890.831L-357.346 889.853ZM-499.313 648.082L-499.487 647.097L-500.904 647.347L-500.175 648.589L-499.313 648.082ZM845.405 410.89L846.267 410.384L845.915 409.785L845.231 409.906L845.405 410.89ZM969.125 621.588L969.902 622.218L970.339 621.679L969.988 621.081L969.125 621.588ZM108.164 1682.62L107.302 1683.13L108.032 1684.37L108.941 1683.25L108.164 1682.62ZM-33.8031 1440.85L-34.5581 1440.19L-35.0292 1440.74L-34.6654 1441.36L-33.8031 1440.85ZM134.748 785.378L134.539 784.4L133.184 784.689L133.885 785.885L134.748 785.378ZM296.741 1061.25L295.879 1061.76L296.583 1062.96L297.496 1061.91L296.741 1061.25ZM628.357 680.013L629.111 680.669L631.077 678.41L628.148 679.035L628.357 680.013ZM149.481 1230.28L-84.6086 831.626L-86.3333 832.639L147.757 1231.3L149.481 1230.28ZM-85.6786 831.154L-357.553 888.875L-357.138 890.831L-85.2633 833.11L-85.6786 831.154ZM-356.483 889.347L-498.451 647.576L-500.175 648.589L-358.208 890.36L-356.483 889.347ZM-499.139 649.067L845.579 411.875L845.231 409.906L-499.487 647.097L-499.139 649.067ZM844.543 411.397L968.263 622.094L969.988 621.081L846.267 410.384L844.543 411.397ZM968.349 620.957L107.387 1681.99L108.941 1683.25L969.902 622.218L968.349 620.957ZM109.026 1682.11L-32.9408 1440.34L-34.6654 1441.36L107.302 1683.13L109.026 1682.11ZM-33.0481 1441.5L149.374 1231.45L147.864 1230.13L-34.5581 1440.19L-33.0481 1441.5ZM133.885 785.885L295.879 1061.76L297.604 1060.75L135.61 784.872L133.885 785.885ZM297.496 1061.91L629.111 680.669L627.602 679.357L295.987 1060.6L297.496 1061.91ZM628.148 679.035L134.539 784.4L134.956 786.356L628.566 680.991L628.148 679.035Z" fill="white"/>
</svg>
