<svg width="1440" height="612" viewBox="0 0 1440 612" fill="none" xmlns="http://www.w3.org/2000/svg">
<path d="M978.788 -22.1158L977.958 -22.6749L979.322 -21.2706L978.788 -22.1158ZM1849.11 -572.349L1849.84 -573.031L1849.27 -573.637L1848.57 -573.194L1849.11 -572.349ZM2048.3 -358.851L2048.81 -357.99L2049.88 -358.622L2049.03 -359.533L2048.3 -358.851ZM793.478 380.503L792.747 381.185L793.294 381.772L793.986 381.365L793.478 380.503ZM592.285 164.864L591.45 164.314L591.018 164.971L591.554 165.546L592.285 164.864ZM1129.87 -653.243L1130.7 -652.694L1129.38 -654.115L1129.87 -653.243ZM276.506 -173.59L275.775 -172.908L276.311 -172.334L276.996 -172.719L276.506 -173.59ZM75.3134 -389.23L74.4891 -389.796L74.0348 -389.135L74.5823 -388.548L75.3134 -389.23ZM899.77 -1589.85L900.501 -1590.54L899.651 -1591.45L898.946 -1590.42L899.77 -1589.85ZM1098.96 -1376.36L1099.77 -1375.77L1100.26 -1376.43L1099.7 -1377.04L1098.96 -1376.36ZM491.89 -546.838L491.083 -547.429L492.39 -545.972L491.89 -546.838ZM1390.09 -1064.32L1390.83 -1065L1390.28 -1065.58L1389.59 -1065.19L1390.09 -1064.32ZM1559.31 -882.955L1560.14 -882.396L1560.58 -883.056L1560.04 -883.637L1559.31 -882.955ZM979.322 -21.2706L1849.64 -571.503L1848.57 -573.194L978.253 -22.9611L979.322 -21.2706ZM1848.38 -571.666L2047.57 -358.169L2049.03 -359.533L1849.84 -573.031L1848.38 -571.666ZM2047.79 -359.713L792.97 379.642L793.986 381.365L2048.81 -357.99L2047.79 -359.713ZM794.209 379.821L593.017 164.181L591.554 165.546L792.747 381.185L794.209 379.821ZM593.121 165.413L1130.7 -652.694L1129.03 -653.792L591.45 164.314L593.121 165.413ZM1129.38 -654.115L276.016 -174.462L276.996 -172.719L1130.36 -652.371L1129.38 -654.115ZM277.237 -174.273L76.0446 -389.912L74.5823 -388.548L275.775 -172.908L277.237 -174.273ZM76.1378 -388.664L900.594 -1589.29L898.946 -1590.42L74.4891 -389.796L76.1378 -388.664ZM899.039 -1589.17L1098.23 -1375.67L1099.7 -1377.04L900.501 -1590.54L899.039 -1589.17ZM1098.16 -1376.95L491.083 -547.429L492.697 -546.248L1099.77 -1375.77L1098.16 -1376.95ZM492.39 -545.972L1390.59 -1063.45L1389.59 -1065.19L491.391 -547.705L492.39 -545.972ZM1389.36 -1063.64L1558.58 -882.273L1560.04 -883.637L1390.83 -1065L1389.36 -1063.64ZM1558.48 -883.514L977.958 -22.6749L979.617 -21.5567L1560.14 -882.396L1558.48 -883.514Z" fill="white"/>
</svg>
