<svg width="1440" height="1024" viewBox="0 0 1440 1024" fill="none" xmlns="http://www.w3.org/2000/svg">
<path d="M718.788 899.884L715.471 897.648L720.925 903.265L718.788 899.884ZM1589.11 349.651L1592.03 346.923L1589.77 344.499L1586.97 346.27L1589.11 349.651ZM1788.3 563.149L1790.33 566.595L1794.63 564.065L1791.23 560.42L1788.3 563.149ZM533.478 1302.5L530.553 1305.23L532.743 1307.58L535.509 1305.95L533.478 1302.5ZM332.285 1086.86L328.943 1084.67L327.216 1087.29L329.361 1089.59L332.285 1086.86ZM869.869 268.757L873.212 270.953L867.909 265.27L869.869 268.757ZM16.5061 748.41L13.5814 751.138L15.7258 753.437L18.4661 751.896L16.5061 748.41ZM-184.687 532.77L-187.984 530.506L-189.801 533.152L-187.611 535.499L-184.687 532.77ZM639.77 -667.853L642.695 -670.582L639.294 -674.226L636.473 -670.117L639.77 -667.853ZM838.964 -454.356L842.192 -451.993L844.147 -454.664L841.889 -457.084L838.964 -454.356ZM231.89 375.162L228.662 372.799L233.887 378.628L231.89 375.162ZM1130.09 -142.321L1133.02 -145.05L1130.85 -147.373L1128.1 -145.787L1130.09 -142.321ZM1299.31 39.0448L1302.63 41.2813L1304.4 38.6429L1302.23 36.3161L1299.31 39.0448ZM720.925 903.265L1591.24 353.032L1586.97 346.27L716.65 896.503L720.925 903.265ZM1586.18 352.38L1785.38 565.878L1791.23 560.42L1592.03 346.923L1586.18 352.38ZM1786.27 559.703L531.448 1299.06L535.509 1305.95L1790.33 566.595L1786.27 559.703ZM536.403 1299.77L335.21 1084.13L329.361 1089.59L530.553 1305.23L536.403 1299.77ZM335.628 1089.06L873.212 270.953L866.526 266.56L328.943 1084.67L335.628 1089.06ZM867.909 265.27L14.5462 744.923L18.4661 751.896L871.829 272.244L867.909 265.27ZM19.4308 745.681L-181.762 530.041L-187.611 535.499L13.5814 751.138L19.4308 745.681ZM-181.389 535.034L643.068 -665.589L636.473 -670.117L-187.984 530.506L-181.389 535.034ZM636.845 -665.124L836.04 -451.627L841.889 -457.084L642.695 -670.582L636.845 -665.124ZM835.736 -456.718L228.662 372.799L235.118 377.524L842.192 -451.993L835.736 -456.718ZM233.887 378.628L1132.09 -138.855L1128.1 -145.787L229.894 371.696L233.887 378.628ZM1127.17 -139.592L1296.38 41.7736L1302.23 36.3161L1133.02 -145.05L1127.17 -139.592ZM1295.99 36.8084L715.471 897.648L722.104 902.121L1302.63 41.2813L1295.99 36.8084Z" fill="black"/>
</svg>
