<svg width="411" height="353" viewBox="0 0 411 353" fill="none" xmlns="http://www.w3.org/2000/svg">
<path fill-rule="evenodd" clip-rule="evenodd" d="M356.634 1.93198C347.686 6.39116 344.276 15.9541 350.24 19.8616C351.274 20.5399 352.177 20.9836 352.244 20.8479C355.366 14.5391 358.117 11.5458 365.748 6.15883C371.521 2.08411 371.602 1.98369 369.87 1.02365C366.873 -0.638612 360.982 -0.234663 356.634 1.93198ZM348.207 3.33643C343.653 5.70992 337.391 11.4289 335.14 15.2706C333.184 18.6071 330.783 27.6394 331.156 30.2542C331.33 31.4743 331.879 30.8875 333.526 27.7203C336.515 21.9721 339.034 18.8049 342.017 17.0445C343.642 16.086 344.725 14.7759 344.991 13.4502C345.22 12.3035 347.252 9.14237 349.506 6.42714C353.887 1.14881 353.621 0.51553 348.207 3.33643ZM369.27 6.1371C365.08 8.21156 356.221 16.5041 354.971 19.5222C353.813 22.3146 354.799 24.5936 357.974 26.4695C361.428 28.5095 362.666 28.0118 367.462 22.6616C370.094 19.7252 374.009 16.4142 376.795 14.7699C385.217 9.79813 385.045 10.0642 381.792 7.06716C378.369 3.91275 374.365 3.61597 369.27 6.1371ZM378.767 15.2144C376.388 16.5693 373.218 18.8327 371.722 20.2431C369.145 22.6743 366.24 26.7176 366.234 27.8807C366.228 28.9861 371.904 32.217 373.853 32.217C375.143 32.217 377.144 31.1243 379.352 29.2132C381.575 27.2894 384.42 25.7403 387.265 24.9039C389.709 24.1859 391.709 23.1989 391.71 22.7103C391.711 21.2279 390.219 17.7422 388.482 15.1724C386.361 12.0337 384.334 12.0427 378.767 15.2144ZM341.441 18.9323C338.559 20.8741 335.505 25.0455 335.505 27.0391C335.505 28.7433 342.978 36.8613 347.257 39.8051C350.951 42.3472 367.44 47.9553 371.219 47.9553C374.292 47.9553 376.351 46.0419 377.419 42.1958C379.219 35.7131 379.243 35.7408 369.041 32.2544C358.242 28.5642 354.792 26.6808 348.888 21.2526C346.48 19.0388 344.389 17.2281 344.24 17.2281C344.091 17.2281 342.832 17.9948 341.441 18.9323ZM390.85 32.3264C390.591 39.3254 390.301 40.6939 388.164 45.001C385.709 49.951 382.38 53.9606 377.097 58.3283L374.099 60.8067L377.464 59.065C382.542 56.436 387.731 50.8639 390.434 45.1381C392.533 40.6902 392.817 39.3247 392.812 33.7158C392.808 30.2122 392.431 26.7003 391.973 25.9127C391.313 24.778 391.08 26.1143 390.85 32.3264ZM382.774 28.2659C379.007 30.2145 378.494 31.4615 379.63 35.8967C381.417 42.8665 378.539 49.2128 370.041 57.043C366.966 59.8767 364.742 62.1947 365.099 62.1947C365.455 62.1947 368.513 60.8554 371.895 59.2186C383.421 53.639 390.075 42.8598 389.319 30.9879C389.112 27.7293 388.89 27.3239 387.214 27.1417C386.184 27.0301 384.186 27.5359 382.774 28.2659ZM332.426 33.6911C331.677 36.1913 331.741 37.203 332.827 40.0479C336.712 50.2201 359.686 60.3713 368.504 55.8117C370.411 54.8254 373.534 50.5124 372.842 49.8206C372.708 49.6865 369.761 49.1881 366.294 48.7137C354.621 47.1151 346.188 42.9317 339.036 35.1915C336.762 32.7311 334.545 30.7181 334.109 30.7181C333.673 30.7181 332.915 32.0558 332.426 33.6911ZM336.138 49.2668C341.147 56.2201 351.326 62.1759 358.446 62.3191C361.554 62.3813 363.982 61.3006 363.982 59.8549C363.982 59.4929 363.003 59.1969 361.806 59.1969C357.956 59.1969 349.184 55.7142 342.174 51.4027C338.422 49.0944 335.194 47.2058 335.002 47.2058C334.81 47.2058 335.321 48.1329 336.138 49.2668ZM247.448 54.2633C245.8 54.7917 240.235 57.2573 235.083 59.7425C229.931 62.2269 220.994 66.2042 215.224 68.5807C199.523 75.0461 191.151 79.0804 189.026 81.205C186.424 83.8079 186.584 86.5995 189.722 93.3011C191.152 96.3565 192.539 99.7178 192.803 100.77C193.067 101.823 193.697 102.932 194.203 103.236C194.708 103.54 195.968 105.644 197.003 107.911C199.089 112.48 202.202 116.594 210.315 125.499C219.091 135.133 219.701 136.548 225.683 161.192C227.144 167.207 228.34 173.446 228.341 175.056C228.343 176.667 229.69 182.368 231.336 187.726C234.663 198.563 235.168 204.721 233.144 209.78C232.072 212.459 231.495 212.907 227.32 214.296C215.003 218.395 208.349 227.281 204.284 245.059C203.389 248.975 201.641 254.708 200.401 257.799C198.321 262.984 198.208 263.722 198.955 267.312C199.475 269.816 199.517 272.096 199.072 273.708C198.217 276.803 194.849 282.187 191.33 286.082C189.87 287.698 187.988 290.624 187.148 292.583C186.309 294.542 185.317 296.034 184.945 295.896C184.573 295.759 182.954 293.889 181.347 291.743C176.07 284.693 160.058 270.645 144.779 259.661C140.245 256.402 134.716 252.274 132.494 250.49C130.272 248.706 126.983 246.384 125.188 245.332C123.391 244.279 121.922 243.136 121.922 242.792C121.922 241.337 119.281 239.759 114.422 238.312C109.733 236.916 106.933 234.893 106.933 232.901C106.933 231.926 111.194 232.246 115.995 233.581C119.915 234.671 120.631 234.697 121.218 233.768C122.209 232.203 122.071 229.868 120.889 228.176C120.322 227.363 119.858 225.712 119.858 224.508C119.861 221.82 118.584 220.834 112.453 218.795C109.838 217.924 107.483 216.864 107.22 216.438C106.554 215.361 108.377 214.359 111.055 214.33L113.303 214.306L110.689 212.633C108.601 211.296 106.864 210.934 102.07 210.837C98.7684 210.77 95.8982 210.647 95.6921 210.563C94.5972 210.12 92.1204 210.928 89.4937 212.586C84.7154 215.603 82.5391 215.592 76.7589 212.525C72.1867 210.099 71.1143 209.835 65.8242 209.835C62.5979 209.835 58.372 210.312 56.4333 210.896C45.3727 214.224 41.5162 223.883 47.6179 232.975C48.0286 233.587 50.0985 234.127 52.7034 234.303C66.9963 235.264 82.7947 240.194 91.945 246.548C92.9754 247.263 94.9989 248.239 96.4415 248.718C97.8841 249.196 99.9075 250.266 100.938 251.097C101.968 251.927 106.684 255.517 111.416 259.075C122.994 267.778 126.86 271.822 132.055 280.666C141.173 296.189 145.889 302.249 152.213 306.573C155.214 308.625 157.075 312.128 155.828 313.375C155.283 313.92 154.903 313.736 154.582 312.772C154.083 311.28 143.409 303.907 133.444 298.173C124.772 293.183 117.49 290.138 102.437 285.211C86.1715 279.886 72.0675 273.311 72.8851 271.435C74.9385 266.721 73.5379 260.125 69.7766 256.794C66.5144 253.906 66.3877 252.262 69.4626 252.713C72.0143 253.088 72.3066 252.534 70.3993 250.94C66.9558 248.065 61.6499 247.017 51.8543 247.279C46.6084 247.419 45.3007 247.754 41.3543 249.961C37.255 252.253 36.4576 252.441 32.5517 252.038C29.5458 251.728 27.2998 251.95 25.0658 252.777C23.3107 253.426 19.5141 254.53 16.6289 255.23C3.15143 258.5 -2.44444 263.871 0.985626 270.245C2.53466 273.122 3.60632 273.548 9.13475 273.489C11.1956 273.467 16.4228 273.807 20.7507 274.246C25.0785 274.683 29.6312 275.125 30.8678 275.227C32.5315 275.363 33.46 276.041 34.4387 277.833C35.9773 280.652 38.2068 281.922 46.9614 284.964C51.2413 286.451 54.6317 287.148 57.2329 287.074C61.7384 286.947 64.8259 288.1 72.0915 292.628C74.9798 294.428 78.2082 296.118 79.2657 296.384C81.7897 297.018 103.865 313.566 112.929 321.619C116.844 325.098 122.24 329.598 124.919 331.619C127.598 333.641 132.624 337.926 136.088 341.143C140.063 344.834 143.435 347.306 145.231 347.844C146.796 348.313 148.999 349.66 150.127 350.837C153.022 353.859 156.42 353.723 161.675 350.375C163.923 348.943 166.171 347.762 166.67 347.752C167.169 347.741 168.185 347.08 168.928 346.283C169.692 345.462 172.585 344.309 175.595 343.624C178.766 342.903 182.533 341.37 184.928 339.827C187.136 338.404 189.841 337.24 190.938 337.24C192.035 337.24 193.392 336.686 193.954 336.009C194.516 335.332 197.811 333.424 201.276 331.77C205.205 329.894 209.685 326.922 213.184 323.87C216.577 320.911 221.494 317.626 225.627 315.556L232.46 312.134L235.512 305.954C239.275 298.332 240.184 297.339 250.446 289.625C259.859 282.55 261.017 281.191 264.257 273.406C265.551 270.298 267.39 267.022 268.344 266.126C269.383 265.15 270.105 263.568 270.144 262.181C270.184 260.786 271.859 257.141 274.359 253.009C276.64 249.238 278.901 245.024 279.382 243.643C280.9 239.287 279.052 224.824 276.977 224.824C276.119 224.824 276.096 224.611 277.459 229.201C278.551 232.88 278.449 234.567 277.136 234.567C276.819 234.567 276.146 232.323 275.641 229.581C274.59 223.876 272.444 219.059 271.963 221.324C271.803 222.078 272.393 224.373 273.275 226.422C274.257 228.707 274.681 230.768 274.37 231.748C273.88 233.292 273.808 233.272 272.271 231.16C268.086 225.405 253.439 208.602 251.875 207.76C249.291 206.369 247.412 202.34 249.347 202.34C250.492 202.34 259.452 211.103 262.97 215.662C264.648 217.837 266.165 219.471 266.342 219.294C266.837 218.8 263.601 212.797 261.25 209.85C258.958 206.976 256.708 202.948 257.15 202.507C257.678 201.979 261.697 204.457 263.561 206.46C264.591 207.568 266.056 208.809 266.817 209.219C268.003 209.857 268.128 209.741 267.703 208.4C267.312 207.17 267.527 206.837 268.712 206.837C269.54 206.837 270.388 206.56 270.598 206.221C271.229 205.2 268.919 201.421 265.479 197.844C261.52 193.727 260.563 191.943 260.563 188.677C260.563 187.086 259.605 184.654 257.96 182.071C254.938 177.328 254.827 176.859 256.725 176.859C257.582 176.859 258.496 177.736 259.061 179.1C259.572 180.332 261.383 182.521 263.086 183.966C264.79 185.41 267.364 187.754 268.807 189.174C271.307 191.636 273.891 192.869 274.01 191.658C274.161 190.124 267.675 178.726 264.434 174.831C262.41 172.4 260.197 169.333 259.517 168.017C258.28 165.625 255.187 152.128 255.876 152.128C256.353 152.128 260.02 156.228 264.685 161.977C266.746 164.517 270.04 168.273 272.006 170.324C273.972 172.375 276.133 174.989 276.808 176.133C278.545 179.074 284.694 181.857 287.373 180.914C290.845 179.693 291.684 176.763 290.636 169.516C290.14 166.081 289.535 162.281 289.293 161.072C289.015 159.682 289.164 158.873 289.697 158.873C290.161 158.873 290.54 159.527 290.54 160.327C290.54 162.539 291.934 162.925 292.452 160.858C293.07 158.398 291.041 154.674 288.316 153.265C285.301 151.705 281.313 151.815 279.789 153.499C278.209 155.245 278.231 155.608 280.048 157.919C280.872 158.967 281.554 160.875 281.563 162.159C281.572 163.443 282.247 165.964 283.062 167.76C283.877 169.558 284.544 172.002 284.544 173.194C284.544 175.204 284.341 175.358 281.734 175.326C279.207 175.295 278.441 174.748 274.131 169.893C269.552 164.733 267.343 161.121 268.768 161.121C269.132 161.121 270.499 162.47 271.804 164.119C273.11 165.768 274.455 167.117 274.792 167.117C275.13 167.117 274.447 164.835 273.275 162.044C272.103 159.255 270.556 153.98 269.837 150.322C268.924 145.674 267.971 143.006 266.674 141.465C264.1 138.405 254.88 131.143 253.57 131.143C251.799 131.143 250.071 127.674 250.071 124.117C250.071 121.316 250.439 120.475 252.377 118.844C256.064 115.742 259.356 116.157 263.118 120.196C266.965 124.328 273.687 127.883 275.229 126.603C275.811 126.121 277.323 125.877 278.59 126.063L280.892 126.401L278.929 124.581C276.365 122.203 276.769 120.629 280.432 118.729C282.076 117.876 283.42 116.716 283.42 116.151C283.42 115.585 281.397 114.313 278.924 113.324C271.388 110.308 270.554 108.804 273.362 103.297C275.344 99.4135 274.864 97.5721 271.077 94.5279C267.277 91.4747 267.138 89.9241 270.663 89.9241C273.835 89.9241 274.749 91.1914 276.955 98.6401C277.825 101.579 279.212 104.783 280.038 105.76L281.539 107.536L280.419 104.75C279.12 101.519 278.987 98.6521 280.043 96.678C280.659 95.5261 280.241 94.8337 277.608 92.6565C275.856 91.2071 273.418 88.0714 272.179 85.6747C270.521 82.4649 269.047 80.7876 266.558 79.2797C257.37 73.7114 242.003 76.3592 236.284 84.4959C234.578 86.9248 233.979 88.7227 233.73 92.1686C233.494 95.4272 233.108 96.6691 232.329 96.6691C231.738 96.6691 228.876 95.6573 225.97 94.4207C223.065 93.1841 220.301 92.1694 219.829 92.1649C219.357 92.1612 217.2 91.3338 215.036 90.3258C208.147 87.1182 209.373 85.4611 223.842 78.4246C228.582 76.1193 234.132 72.8458 236.176 71.1505C242.598 65.822 245.006 65.0635 249.533 66.9431C256.19 69.7078 257.815 68.8842 254.193 64.5794C250.524 60.2191 251.596 59.7552 266.558 59.2299L278.174 58.8222L276.039 57.375C273.332 55.5426 261.691 53.2381 255.317 53.2741C252.638 53.289 249.097 53.7342 247.448 54.2633ZM217.097 102.025C219.661 103.025 223.999 103.839 228.574 104.178C234.993 104.655 236.185 104.965 237.941 106.615C239.048 107.655 241.31 108.725 242.966 108.994C247.175 109.677 251.945 112.486 251.945 114.281C251.945 115.362 250.703 116.242 247.074 117.734C244.291 118.877 240.833 121.056 239.008 122.816C237.251 124.511 235.291 125.897 234.652 125.897C234.013 125.897 231.32 125.14 228.666 124.213C224.31 122.693 223.842 122.33 223.842 120.466C223.842 118.693 223.539 118.403 221.685 118.403C218.699 118.403 217.567 116.767 218.052 113.149C218.449 110.19 218.428 110.159 216.003 110.159C212.174 110.159 207.355 105.376 207.355 101.578C207.355 99.8654 212.121 100.084 217.097 102.025ZM390.553 117.338C375.298 123.647 371.434 124.006 350.868 121.021C343.861 120.004 336.506 119.167 334.524 119.162C331.357 119.154 320.462 120.515 319.951 120.982C319.846 121.079 320.337 122.308 321.043 123.715C322.45 126.521 322.714 133.742 321.455 135.002C320.933 135.523 319.944 135.383 318.354 134.56C316.248 133.472 315.803 133.465 313.809 134.496C310.88 136.012 309.525 136.02 310.774 134.516C312.143 132.866 310.569 133.041 304.034 135.264C301.007 136.294 298.492 137.052 298.445 136.95C296.391 132.497 294.64 130.886 290.805 129.926L288.666 129.39L291.195 132.274C293.942 135.404 295.786 139.174 295.786 141.662C295.786 142.808 296.142 143.131 297.097 142.85C307.559 139.773 327.508 136.751 335.538 137.027C339.894 137.176 345.882 136.597 354.273 135.214C370.088 132.609 378.126 132.508 386.051 134.816C392.705 136.755 397.603 136.644 399.967 134.505C402.065 132.606 401.153 131.893 396.628 131.893C392.928 131.893 392.577 131.735 391.734 129.7C391.234 128.493 391.037 126.839 391.296 126.023C391.909 124.091 399.779 119.4 405.905 117.314C408.56 116.41 410.848 115.321 410.991 114.894C411.251 114.115 405.943 113.097 402.285 113.226C401.209 113.263 395.93 115.114 390.553 117.338Z" fill="white"/>
</svg>
